<svg xmlns="http://www.w3.org/2000/svg" width="900" height="600" viewBox="0 0 900 600" role="img" aria-labelledby="title description">
  <title id="title">RepoSense project</title>
  <desc id="description">A stylised repository architecture graph on a blue and purple background.</desc>
  <defs>
    <linearGradient id="background" x1="90" y1="40" x2="810" y2="560" gradientUnits="userSpaceOnUse">
      <stop stop-color="#2563eb"/>
      <stop offset="0.55" stop-color="#5b4ee6"/>
      <stop offset="1" stop-color="#7c3aed"/>
    </linearGradient>
    <filter id="shadow" x="-20%" y="-20%" width="140%" height="140%">
      <feDropShadow dx="0" dy="12" stdDeviation="14" flood-color="#172554" flood-opacity="0.3"/>
    </filter>
  </defs>
  <rect width="900" height="600" fill="url(#background)"/>
  <g opacity="0.3" stroke="#dbeafe" stroke-width="4">
    <path d="M115 130 245 225 120 345M245 225l145-95m-145 95 155 125m-280-5 280 5m0 0 150-130m-150 130 160 110m-15-240 155 65m-155-65 25-115m130 180 105 105"/>
  </g>
  <g fill="#eff6ff" opacity="0.8">
    <circle cx="115" cy="130" r="14"/><circle cx="245" cy="225" r="17"/><circle cx="120" cy="345" r="12"/>
    <circle cx="390" cy="130" r="13"/><circle cx="400" cy="350" r="17"/><circle cx="550" cy="220" r="14"/>
    <circle cx="575" cy="105" r="11"/><circle cx="705" cy="285" r="16"/><circle cx="810" cy="390" r="12"/>
  </g>
  <g filter="url(#shadow)">
    <rect x="238" y="174" width="424" height="252" rx="30" fill="#0f172a" fill-opacity="0.94" stroke="#bfdbfe" stroke-opacity="0.5"/>
    <path d="M295 350V224h86c37 0 62 22 62 55 0 24-14 43-36 51l48 62h-57l-40-54h-17v54h-46v-42Zm46-51h36c12 0 19-7 19-17s-7-16-19-16h-36v33Z" fill="white"/>
    <text x="473" y="284" fill="white" font-family="Montserrat, Arial, sans-serif" font-size="45" font-weight="700">RepoSense</text>
    <text x="475" y="332" fill="#bfdbfe" font-family="Arial, sans-serif" font-size="22">See the architecture.</text>
    <text x="475" y="363" fill="#ddd6fe" font-family="Arial, sans-serif" font-size="22">Understand the code.</text>
  </g>
</svg>
